<?xml version="1.0" encoding="UTF-8"?>
<svg id="wpac"
     xmlns="http://www.w3.org/2000/svg"
     viewBox="0 0 32 32"
     width="32"
     height="32">

  <defs>
    <style>
      .cls-1 {
        fill: #fff;
      }

      .cls-2 {
        fill: #002235;
      }
    </style>
  </defs>
  <circle id="bg" class="cls-2" cx="16" cy="16" r="16"/>
  <g>
    <path class="cls-1" d="M4.84,22.27c-2.19-3.88-2.19-8.66,0-12.55l-1.35-1.35c-2.85,4.67-2.85,10.58,0,15.25l1.35-1.35Z"/>
    <path class="cls-1" d="M9.73,4.84c3.88-2.19,8.66-2.19,12.55,0l1.35-1.35c-4.67-2.85-10.58-2.85-15.25,0l1.35,1.35Z"/>
    <path class="cls-1" d="M27.16,9.73c2.19,3.88,2.19,8.66,0,12.55l1.35,1.35c2.85-4.67,2.85-10.58,0-15.25l-1.35,1.35Z"/>
    <path class="cls-1" d="M22.27,27.16c-3.88,2.19-8.66,2.19-12.55,0l-1.35,1.35c4.67,2.85,10.58,2.85,15.25,0l-1.35-1.35Z"/>
  </g>
  <path id="pactus" class="cls-1" d="M14.57,8.27h1.42l-.4,1.18h.66l.4-1.18h1.44l-.41,1.18h3.24c1.72.11,3.63.87,3.6,3.32-.05,3.79-6.09,6.32-10.41,6.99l-1.84,5.33-1.72-5.11,2.61-7.62h3.51l-1.92,5.55c2.65-.28,5.65-2.61,5.65-4.43s-.89-1.81-2.17-1.81h-8.75l-.76-2.23h5.44l.4-1.18h0Z"/>
</svg>