<?xml version="1.0" encoding="UTF-8"?>
<svg id="wpac-bsc" xmlns="http://www.w3.org/2000/svg" viewBox="0 0 128 128">
  <defs>
    <style>
      .cls-1 {
        fill: #fff;
      }

      .cls-2 {
        fill: none;
      }

      .cls-3 {
        fill: #f0b90b;
        fill-rule: evenodd;
      }

      .cls-4 {
        fill: #002235;
      }
    </style>
  </defs>
  <circle id="coin" class="cls-2" cx="62.02" cy="62.02" r="62.02"/>
  <g id="wpac">
    <circle id="bg" class="cls-4" cx="62.02" cy="62.02" r="62.02"/>
    <g>
      <path class="cls-1" d="M18.78,86.33c-8.48-15.05-8.48-33.59,0-48.63l-5.23-5.23c-11.05,18.08-11.05,41.01,0,59.09l5.23-5.23h0Z"/>
      <path class="cls-1" d="M37.7,18.78c15.05-8.48,33.59-8.48,48.63,0l5.23-5.23c-18.08-11.05-41.01-11.05-59.09,0l5.23,5.23h0Z"/>
      <path class="cls-1" d="M105.25,37.7c8.48,15.05,8.48,33.59,0,48.63l5.23,5.23c11.05-18.08,11.05-41.01,0-59.09l-5.23,5.23h0Z"/>
      <path class="cls-1" d="M86.33,105.25c-15.05,8.48-33.59,8.48-48.63,0l-5.23,5.23c18.08,11.05,41.01,11.05,59.09,0l-5.23-5.23h0Z"/>
    </g>
    <path id="pactus" class="cls-1" d="M56.46,32.06h5.51l-1.56,4.56h2.55l1.56-4.56h5.59l-1.59,4.56h12.56c6.65.43,14.08,3.36,13.97,12.88-.17,14.68-23.59,24.52-40.36,27.09l-7.14,20.66-6.69-19.81,10.12-29.53h13.61l-7.43,21.51c10.26-1.09,21.9-10.12,21.9-17.16s-3.47-7.01-8.42-7.01h-33.92l-2.94-8.63h21.09l1.56-4.56h.04,0Z"/>
  </g>
  <circle id="network" class="cls-2" cx="99.83" cy="99.83" r="28.17"/>
  <g id="bsc">
    <path class="cls-3" d="M99.83,71.66c15.56,0,28.17,12.61,28.17,28.17s-12.61,28.17-28.17,28.17-28.17-12.61-28.17-28.17,12.61-28.17,28.17-28.17h0Z"/>
    <path class="cls-1" d="M87.14,99.83l.02,7.45,6.33,3.72v4.36l-10.03-5.88v-11.83l3.68,2.18h0ZM87.14,92.38v4.34l-3.69-2.18v-4.34l3.69-2.18,3.7,2.18-3.7,2.18h0ZM96.14,90.2l3.69-2.18,3.7,2.18-3.7,2.18-3.69-2.18h0Z"/>
    <path class="cls-1" d="M89.81,105.73v-4.36l3.69,2.18v4.34l-3.69-2.16h0ZM96.14,112.57l3.69,2.18,3.7-2.18v4.34l-3.7,2.18-3.69-2.18v-4.34h0ZM108.81,90.2l3.69-2.18,3.7,2.18v4.34l-3.7,2.18v-4.34l-3.69-2.18h0ZM112.5,107.28l.02-7.45,3.69-2.18v11.83l-10.03,5.88v-4.36l6.33-3.72h0Z"/>
    <polygon class="cls-1" points="109.85 105.73 106.17 107.89 106.17 103.55 109.85 101.37 109.85 105.73"/>
    <path class="cls-1" d="M109.85,93.93l.02,4.36-6.35,3.72v7.47l-3.69,2.16-3.69-2.16v-7.47l-6.35-3.72v-4.36l3.7-2.18,6.31,3.74,6.35-3.74,3.7,2.18h-.01,0ZM89.81,86.48l10.01-5.9,10.03,5.9-3.69,2.18-6.35-3.74-6.33,3.74-3.69-2.18h0Z"/>
  </g>
</svg>