<?xml version="1.0" encoding="UTF-8"?>
<svg id="wpac-pol" xmlns="http://www.w3.org/2000/svg" xmlns:xlink="http://www.w3.org/1999/xlink" viewBox="0 0 128 128">
  <defs>
    <style>
      .cls-1 {
        fill: #fff;
      }

      .cls-2 {
        fill: none;
      }

      .cls-3 {
        fill: #002235;
      }

      .cls-4 {
        fill: url(#linear-gradient);
      }
    </style>
    <linearGradient id="linear-gradient" x1="71.66" y1="30.17" x2="128" y2="30.17" gradientTransform="translate(0 130) scale(1 -1)" gradientUnits="userSpaceOnUse">
      <stop offset="0" stop-color="#a229c5"/>
      <stop offset="1" stop-color="#7b3fe4"/>
    </linearGradient>
  </defs>
  <circle id="coin" class="cls-2" cx="62.02" cy="62.02" r="62.02"/>
  <g id="wpac">
    <circle id="bg" class="cls-3" cx="62.02" cy="62.02" r="62.02"/>
    <g>
      <path class="cls-1" d="M18.78,86.33c-8.48-15.05-8.48-33.59,0-48.63l-5.23-5.23c-11.05,18.08-11.05,41.01,0,59.09l5.23-5.23h0Z"/>
      <path class="cls-1" d="M37.7,18.78c15.05-8.48,33.59-8.48,48.63,0l5.23-5.23c-18.08-11.05-41.01-11.05-59.09,0l5.23,5.23h0Z"/>
      <path class="cls-1" d="M105.25,37.7c8.48,15.05,8.48,33.59,0,48.63l5.23,5.23c11.05-18.08,11.05-41.01,0-59.09l-5.23,5.23h0Z"/>
      <path class="cls-1" d="M86.33,105.25c-15.05,8.48-33.59,8.48-48.63,0l-5.23,5.23c18.08,11.05,41.01,11.05,59.09,0l-5.23-5.23h0Z"/>
    </g>
    <path id="pactus" class="cls-1" d="M56.46,32.06h5.51l-1.56,4.56h2.55l1.56-4.56h5.59l-1.59,4.56h12.56c6.65.43,14.08,3.36,13.97,12.88-.17,14.68-23.59,24.52-40.36,27.09l-7.14,20.66-6.69-19.81,10.12-29.53h13.61l-7.43,21.51c10.26-1.09,21.9-10.12,21.9-17.16s-3.47-7.01-8.42-7.01h-33.92l-2.94-8.63h21.09l1.56-4.56h.04,0Z"/>
  </g>
  <g id="pol">
    <g id="mask0_4864_1939" data-name="mask0 4864 1939">
      <path class="cls-4" d="M99.83,128c15.56,0,28.17-12.61,28.17-28.17s-12.61-28.17-28.17-28.17-28.17,12.61-28.17,28.17,12.61,28.17,28.17,28.17Z"/>
    </g>
    <path class="cls-1" d="M107.98,105.91l7.97-4.6c.42-.24.68-.7.68-1.19v-9.2c0-.49-.26-.94-.68-1.19l-7.97-4.6c-.42-.24-.95-.24-1.37,0l-7.97,4.6c-.42.24-.68.7-.68,1.19v16.45l-5.59,3.23-5.59-3.23v-6.45l5.59-3.23,3.69,2.13v-4.33l-3-1.73c-.21-.12-.44-.18-.68-.18s-.48.06-.68.18l-7.97,4.6c-.42.24-.68.7-.68,1.19v9.2c0,.49.26.94.68,1.19l7.97,4.6c.42.24.95.24,1.37,0l7.97-4.6c.42-.24.68-.7.68-1.19v-16.45l.1-.06,5.49-3.17,5.59,3.23v6.45l-5.59,3.23-3.68-2.13v4.33l3,1.73c.42.24.95.24,1.37,0h0Z"/>
  </g>
</svg>