<?xml version="1.0" encoding="UTF-8"?>
<svg id="wpac-base" xmlns="http://www.w3.org/2000/svg" viewBox="0 0 128 128">
  <defs>
    <style>
      .cls-1 {
        fill: #fff;
      }

      .cls-2 {
        fill: blue;
      }

      .cls-3 {
        fill: none;
      }

      .cls-4 {
        fill: #002235;
      }

      .cls-5 {
        fill-rule: evenodd;
      }
    </style>
  </defs>
  <circle id="coin" class="cls-3" cx="62.02" cy="62.02" r="62.02"/>
  <g id="wpac">
    <circle id="bg" class="cls-4" cx="62.02" cy="62.02" r="62.02"/>
    <g>
      <path class="cls-1" d="M18.78,86.33c-8.48-15.05-8.48-33.59,0-48.63l-5.23-5.23c-11.05,18.08-11.05,41.01,0,59.09l5.23-5.23h0Z"/>
      <path class="cls-1" d="M37.7,18.78c15.05-8.48,33.59-8.48,48.63,0l5.23-5.23c-18.08-11.05-41.01-11.05-59.09,0l5.23,5.23h0Z"/>
      <path class="cls-1" d="M105.25,37.7c8.48,15.05,8.48,33.59,0,48.63l5.23,5.23c11.05-18.08,11.05-41.01,0-59.09l-5.23,5.23h0Z"/>
      <path class="cls-1" d="M86.33,105.25c-15.05,8.48-33.59,8.48-48.63,0l-5.23,5.23c18.08,11.05,41.01,11.05,59.09,0l-5.23-5.23h0Z"/>
    </g>
    <path id="pactus" class="cls-1" d="M56.46,32.06h5.51l-1.56,4.56h2.55l1.56-4.56h5.59l-1.59,4.56h12.56c6.65.43,14.08,3.36,13.97,12.88-.17,14.68-23.59,24.52-40.36,27.09l-7.14,20.66-6.69-19.81,10.12-29.53h13.61l-7.43,21.51c10.26-1.09,21.9-10.12,21.9-17.16s-3.47-7.01-8.42-7.01h-33.92l-2.94-8.63h21.09l1.56-4.56h.04,0Z"/>
  </g>
  <circle id="network" class="cls-3" cx="99.83" cy="99.83" r="28.17"/>
  <g id="base">
    <path class="cls-5" d="M99.83,71.66c15.56,0,28.17,12.61,28.17,28.17s-12.61,28.17-28.17,28.17-28.17-12.61-28.17-28.17,12.61-28.17,28.17-28.17h0Z"/>
    <g id="base-2">
      <path class="cls-2" d="M99.78,128c15.59,0,28.22-12.61,28.22-28.17s-12.63-28.17-28.22-28.17-26.91,11.35-28.12,25.8h37.3v4.74h-37.3c1.21,14.45,13.33,25.8,28.12,25.8Z"/>
    </g>
  </g>
</svg>