<?xml version="1.0" encoding="UTF-8"?>
<svg id="wpac-sol"
     xmlns="http://www.w3.org/2000/svg"
     viewBox="0 0 128 128"
     width="128"
     height="128">
	 
  <defs>
    <style>
      .cls-1 {
        fill: url(#linear-gradient-2);
      }

      .cls-2 {
        fill: #fff;
      }

      .cls-3 {
        fill: none;
      }

      .cls-4 {
        fill: url(#linear-gradient-3);
      }

      .cls-5 {
        fill: #002235;
      }

      .cls-6 {
        fill-rule: evenodd;
      }

      .cls-7 {
        fill: url(#linear-gradient);
      }
    </style>
    <linearGradient id="linear-gradient" x1="114.9" y1="162.14" x2="94.47" y2="123.02" gradientTransform="translate(0 244) scale(1 -1)" gradientUnits="userSpaceOnUse">
      <stop offset="0" stop-color="#00ffa3"/>
      <stop offset="1" stop-color="#dc1fff"/>
    </linearGradient>
    <linearGradient id="linear-gradient-2" x1="105.97" y1="166.81" x2="85.54" y2="127.68" gradientTransform="translate(0 244) scale(1 -1)" gradientUnits="userSpaceOnUse">
      <stop offset="0" stop-color="#00ffa3"/>
      <stop offset="1" stop-color="#dc1fff"/>
    </linearGradient>
    <linearGradient id="linear-gradient-3" x1="110.4" y1="164.49" x2="89.98" y2="125.37" gradientTransform="translate(0 244) scale(1 -1)" gradientUnits="userSpaceOnUse">
      <stop offset="0" stop-color="#00ffa3"/>
      <stop offset="1" stop-color="#dc1fff"/>
    </linearGradient>
  </defs>
  <circle id="coin" class="cls-3" cx="62.02" cy="62.02" r="62.02"/>
  <g id="wpac">
    <circle id="bg" class="cls-5" cx="62.02" cy="62.02" r="62.02"/>
    <g>
      <path class="cls-2" d="M18.78,86.33c-8.48-15.05-8.48-33.59,0-48.63l-5.23-5.23c-11.05,18.08-11.05,41.01,0,59.09l5.23-5.23h0Z"/>
      <path class="cls-2" d="M37.7,18.78c15.05-8.48,33.59-8.48,48.63,0l5.23-5.23c-18.08-11.05-41.01-11.05-59.09,0l5.23,5.23h0Z"/>
      <path class="cls-2" d="M105.25,37.7c8.48,15.05,8.48,33.59,0,48.63l5.23,5.23c11.05-18.08,11.05-41.01,0-59.09l-5.23,5.23h0Z"/>
      <path class="cls-2" d="M86.33,105.25c-15.05,8.48-33.59,8.48-48.63,0l-5.23,5.23c18.08,11.05,41.01,11.05,59.09,0l-5.23-5.23h0Z"/>
    </g>
    <path id="pactus" class="cls-2" d="M56.46,32.06h5.51l-1.56,4.56h2.55l1.56-4.56h5.59l-1.59,4.56h12.56c6.65.43,14.08,3.36,13.97,12.88-.17,14.68-23.59,24.52-40.36,27.09l-7.14,20.66-6.69-19.81,10.12-29.53h13.61l-7.43,21.51c10.26-1.09,21.9-10.12,21.9-17.16s-3.47-7.01-8.42-7.01h-33.92l-2.94-8.63h21.09l1.56-4.56h.04,0Z"/>
  </g>
  <g id="sol">
    <path class="cls-6" d="M99.83,71.66c15.56,0,28.17,12.61,28.17,28.17s-12.61,28.17-28.17,28.17-28.17-12.61-28.17-28.17,12.61-28.17,28.17-28.17h0Z"/>
    <g>
      <path class="cls-7" d="M87.35,107.46c.22-.22.53-.35.86-.35h29.51c.54,0,.81.65.43,1.03l-5.83,5.83c-.22.22-.53.35-.86.35h-29.51c-.54,0-.81-.65-.43-1.03l5.83-5.83Z"/>
      <path class="cls-1" d="M87.35,85.69c.23-.22.54-.35.86-.35h29.51c.54,0,.81.65.43,1.03l-5.83,5.83c-.22.22-.53.35-.86.35h-29.51c-.54,0-.81-.65-.43-1.03l5.83-5.83Z"/>
      <path class="cls-4" d="M112.31,96.51c-.22-.22-.53-.35-.86-.35h-29.51c-.54,0-.81.65-.43,1.03l5.83,5.83c.22.22.53.35.86.35h29.51c.54,0,.81-.65.43-1.03l-5.83-5.83Z"/>
    </g>
  </g>
</svg>