<?xml version="1.0" encoding="UTF-8" standalone="no"?>
<svg
   id="wpac"
   viewBox="0 0 32 32"
   version="1.1"
   width="32"
   height="32"
   inkscape:version="1.1.2 (0a00cf5339, 2022-02-04)"
   xmlns:inkscape="http://www.inkscape.org/namespaces/inkscape"
   xmlns:sodipodi="http://sodipodi.sourceforge.net/DTD/sodipodi-0.dtd"
   xmlns="http://www.w3.org/2000/svg"
   xmlns:svg="http://www.w3.org/2000/svg">
  <sodipodi:namedview
     id="namedview19"
     pagecolor="#ffffff"
     bordercolor="#666666"
     borderopacity="1.0"
     inkscape:pageshadow="2"
     inkscape:pageopacity="0.0"
     inkscape:pagecheckerboard="0"
     showgrid="false"
     inkscape:zoom="1.625969"
     inkscape:cx="257.69249"
     inkscape:cy="159.90465"
     inkscape:window-width="1920"
     inkscape:window-height="1011"
     inkscape:window-x="0"
     inkscape:window-y="32"
     inkscape:window-maximized="1"
     inkscape:current-layer="wpac"
     fit-margin-top="0"
     fit-margin-left="0"
     fit-margin-right="0"
     fit-margin-bottom="0" />
  <defs
     id="defs4">
    <style
       id="style2">
      .cls-1 {
        fill: #fff;
      }

      .cls-2 {
        fill: #002235;
      }
    </style>
  </defs>
  <circle
     id="bg"
     class="cls-2"
     cx="16"
     cy="16"
     style="stroke-width:0.0620155"
     r="16" />
  <g
     id="g15"
     transform="scale(0.0620155)">
    <path
       class="cls-1"
       d="M 58.06,309.16 C 40.21,239.56 60.17,165.09 110.42,113.73 L 95.04,87.09 C 31.2,147.86 6.51,239.98 31.42,324.54 Z"
       id="path7" />
    <path
       class="cls-1"
       d="m 206.84,58.06 c 69.6,-17.85 144.07,2.11 195.43,52.36 L 428.91,95.04 C 368.14,31.2 276.02,6.51 191.46,31.42 Z"
       id="path9" />
    <path
       class="cls-1"
       d="m 457.94,206.84 c 17.85,69.6 -2.11,144.07 -52.36,195.43 l 15.38,26.64 c 63.85,-60.78 88.53,-152.89 63.62,-237.45 z"
       id="path11" />
    <path
       class="cls-1"
       d="m 309.16,457.94 c -69.6,17.85 -144.07,-2.11 -195.43,-52.36 l -26.64,15.38 c 60.78,63.85 152.89,88.53 237.45,63.62 z"
       id="path13" />
  </g>
  <path
     id="pactus"
     class="cls-1"
     d="m 14.848372,9.2812403 h 1.252713 l -0.353488,1.0356587 h 0.577984 L 16.67907,9.2812403 h 1.268217 l -0.361551,1.0356587 h 2.850233 c 1.509457,0.09612 3.195039,0.762791 3.171473,2.922171 -0.04031,3.331473 -5.355039,5.563411 -9.16031,6.149457 l -1.621706,4.688372 -1.517519,-4.496124 2.295814,-6.703876 h 3.090853 l -1.686202,4.881241 c 2.328062,-0.248683 4.969302,-2.295814 4.969302,-3.893954 0,-1.598139 -0.786976,-1.589457 -1.910697,-1.589457 H 10.367752 L 9.7017054,10.315659 H 14.486822 L 14.84031,9.28 h 0.0081 z"
     style="stroke-width:0.0620155" />
</svg>
