<?xml version="1.0" encoding="UTF-8"?>
<svg id="wpac"
     xmlns="http://www.w3.org/2000/svg"
     viewBox="0 0 128 128"
     width="128"
     height="128">
	 
  <defs>
    <style>
      .cls-1 {
        fill: #fff;
      }

      .cls-2 {
        fill: #002235;
      }
    </style>
  </defs>
  <circle id="bg" class="cls-2" cx="64" cy="64" r="64"/>
  <g>
    <path class="cls-1" d="M19.38,89.09c-8.75-15.53-8.75-34.66,0-50.19l-5.4-5.4c-11.4,18.66-11.4,42.32,0,60.98l5.4-5.4Z"/>
    <path class="cls-1" d="M38.91,19.38c15.53-8.75,34.66-8.75,50.19,0l5.4-5.4c-18.66-11.4-42.32-11.4-60.98,0l5.4,5.4Z"/>
    <path class="cls-1" d="M108.62,38.91c8.75,15.53,8.75,34.66,0,50.19l5.4,5.4c11.4-18.66,11.4-42.32,0-60.98l-5.4,5.4Z"/>
    <path class="cls-1" d="M89.09,108.62c-15.53,8.75-34.66,8.75-50.19,0l-5.4,5.4c18.66,11.4,42.32,11.4,60.98,0l-5.4-5.4Z"/>
  </g>
  <path id="pactus" class="cls-1" d="M58.27,33.09h5.69l-1.61,4.71h2.63l1.61-4.71h5.77l-1.64,4.71h12.96c6.86.44,14.53,3.47,14.42,13.29-.18,15.15-24.35,25.3-41.65,27.96l-7.37,21.32-6.9-20.44,10.44-30.48h14.05l-7.67,22.2c10.59-1.13,22.6-10.44,22.6-17.71s-3.58-7.23-8.69-7.23h-35.01l-3.03-8.91h21.76l1.61-4.71h.04Z"/>
</svg>